PathFileType   4   (X/Y/Z)
DataRate	CameraRate	NumFrames	NumMarkers	Units	OrigDataRate	OrigDataStartFrame	OrigNumFrames
120.0	120.0	7	37	mm	120.0	83	110
Frame#	Time	midhip	hip_r	hip_l	knee_r	knee_l	ankle_r	ankle_l	midasis	asis_r	asis_l	psis_r	psis_l	epicondLat_r	epicondLat_l	epicondMed_r	epicondMed_l	malleolusLat_r	malleolusLat_l	malleolusMedv_r	malleolusMedv_l	neck	subclavicle_r	subclavicle_l	sternalnotch	xyphoidprocess	thighwand_r	thighwand_l	upperleg1_r	upperleg1_l	upperleg2_r	upperleg2_l	shankwand_r	shankwand_l	lowerleg1_r	lowerleg1_l	toe_r	toe_l
 	 	X1	Y1	Z1	X2	Y2	Z2	X3	Y3	Z3	X4	Y4	Z4	X5	Y5	Z5	X6	Y6	Z6	X7	Y7	Z7	X8	Y8	Z8	X9	Y9	Z9	X10	Y10	Z10	X11	Y11	Z11	X12	Y12	Z12	X13	Y13	Z13	X14	Y14	Z14	X15	Y15	Z15	X16	Y16	Z16	X17	Y17	Z17	X18	Y18	Z18	X19	Y19	Z19	X20	Y20	Z20	X21	Y21	Z21	X22	Y22	Z22	X23	Y23	Z23	X24	Y24	Z24	X25	Y25	Z25	X26	Y26	Z26	X27	Y27	Z27	X28	Y28	Z28	X29	Y29	Z29	X30	Y30	Z30	X31	Y31	Z31	X32	Y32	Z32	X33	Y33	Z33	X34	Y34	Z34	X35	Y35	Z35	X36	Y36	Z36	X37	Y37	Z37

	83	0.81667	827.603	841.612	-253.035	827.740	826.751	-192.329	827.689	822.800	-309.734	968.130	473.129	-172.667	851.136	462.868	-292.774	830.540	110.254	-141.871	757.120	67.690	-287.542	885.156	906.512	-247.845	876.791	908.504	-148.161	893.520	904.520	-347.529	726.315	930.076	-229.288	729.732	931.052	-284.308	976.717	479.538	-118.721	867.513	461.486	-344.737	964.487	466.821	-231.609	847.797	443.530	-255.014	823.080	116.248	-104.580	765.648	65.165	-325.001	851.713	114.408	-172.088	777.277	75.300	-259.918	799.012	1346.973	-220.762	895.828	1263.528	-181.255	886.988	1268.638	-288.989	877.251	1278.319	-238.482	916.264	1107.771	-248.822	1038.749	686.347	-186.591	968.151	635.329	-267.231	953.882	704.728	-138.361	905.695	669.780	-339.199	977.199	622.795	-137.872	915.373	583.421	-331.028	863.867	234.117	-45.171	765.730	181.428	-395.655	869.233	236.601	-86.963	773.240	186.791	-352.789	931.151	66.349	-104.171	884.080	38.187	-296.811
	84	0.82500	837.432	841.131	-253.398	838.081	826.423	-192.496	837.539	822.348	-309.896	981.467	473.810	-171.627	854.929	462.290	-292.979	862.449	104.148	-141.049	757.339	67.708	-287.406	895.103	906.238	-248.339	887.156	908.319	-148.590	903.050	904.157	-348.088	736.169	929.444	-228.833	739.286	930.555	-283.820	990.146	480.529	-117.733	871.038	460.623	-345.017	975.870	466.888	-229.999	851.289	443.139	-255.392	854.426	109.811	-103.822	765.667	65.119	-324.905	883.080	109.452	-171.207	777.694	75.078	-259.977	809.839	1346.351	-220.323	906.240	1262.442	-180.871	897.483	1268.062	-288.696	887.788	1277.554	-238.103	926.132	1106.909	-249.159	1049.856	687.628	-186.692	974.640	632.891	-268.108	964.187	705.256	-138.341	912.312	668.559	-339.643	987.679	623.608	-137.221	920.676	582.017	-331.601	888.661	229.681	-44.391	766.452	181.464	-395.643	893.866	232.278	-86.150	774.038	186.794	-352.787	964.617	64.789	-103.991	884.117	38.134	-296.806
	85	0.83333	847.375	840.581	-253.776	848.467	825.918	-192.628	847.389	821.772	-310.022	994.320	474.083	-170.516	858.860	461.670	-293.219	894.455	98.510	-140.418	757.532	67.746	-287.307	905.083	905.804	-248.782	897.592	907.931	-148.967	912.575	903.678	-348.596	746.098	928.650	-228.348	748.912	929.937	-283.279	1003.064	481.091	-116.670	874.680	459.742	-345.337	990.823	466.665	-227.833	854.607	442.966	-255.709	885.823	103.782	-103.270	765.673	65.088	-324.843	914.546	104.825	-170.556	777.933	75.023	-259.944	820.598	1345.590	-219.920	916.704	1261.159	-180.482	908.215	1267.405	-288.345	898.331	1276.632	-237.753	936.315	1105.953	-249.609	1060.859	688.329	-186.641	981.295	630.395	-268.997	974.190	705.377	-137.970	919.274	667.340	-340.099	999.377	624.342	-136.256	926.128	580.609	-332.143	913.226	225.324	-43.727	767.234	181.503	-395.691	918.424	227.942	-85.431	774.969	186.816	-352.927	997.895	63.711	-103.647	884.161	38.089	-296.823
	86	0.84167	857.431	839.969	-254.116	858.894	825.244	-192.716	857.232	821.067	-310.102	1006.701	473.960	-169.366	862.931	460.996	-293.487	926.397	93.425	-139.994	757.704	67.806	-287.242	915.098	905.206	-249.173	908.104	907.347	-149.296	922.093	903.066	-349.051	756.110	927.709	-227.825	758.618	929.202	-282.689	1015.498	481.238	-115.564	878.445	458.833	-345.687	1004.948	466.197	-225.788	858.391	442.813	-255.789	917.149	98.237	-102.932	765.671	65.077	-324.810	946.113	100.692	-170.150	777.941	75.149	-259.864	831.387	1344.653	-219.505	927.178	1259.790	-180.123	918.866	1266.523	-288.047	908.884	1275.555	-237.427	946.446	1104.825	-249.917	1071.720	688.444	-186.483	988.168	627.837	-269.869	984.626	705.242	-137.477	926.403	666.080	-340.586	1011.203	624.577	-135.310	931.821	579.168	-332.651	937.562	221.084	-43.172	768.083	181.552	-395.793	942.954	223.692	-84.774	775.962	186.866	-353.172	1030.908	63.174	-103.118	884.209	38.051	-296.864
	87	0.85000	867.664	839.353	-254.421	869.365	824.401	-192.759	867.081	820.223	-310.134	1018.642	473.465	-168.204	867.137	460.258	-293.774	958.117	88.952	-139.773	757.873	67.890	-287.201	925.161	904.439	-249.514	918.696	906.570	-149.581	931.626	902.308	-349.448	766.215	926.632	-227.263	768.417	928.340	-282.062	1027.485	480.988	-114.443	882.337	457.884	-346.057	1016.760	465.333	-223.810	862.257	442.661	-255.949	948.274	93.235	-102.799	765.674	65.087	-324.798	977.687	97.257	-169.903	777.815	75.390	-259.851	842.229	1343.520	-218.984	937.595	1258.327	-179.832	929.474	1265.473	-287.783	919.449	1274.323	-237.124	956.512	1103.557	-250.170	1082.410	687.984	-186.239	995.282	625.211	-270.693	995.398	704.890	-136.904	933.624	664.747	-341.127	1022.530	624.230	-134.357	937.539	577.718	-333.284	961.634	217.009	-42.717	768.996	181.616	-395.933	967.505	219.674	-84.294	777.007	186.917	-353.496	1063.574	63.221	-102.420	884.259	38.013	-296.928
	88	0.85833	877.999	838.621	-254.689	879.898	823.389	-192.757	876.973	819.232	-310.118	1030.200	472.626	-167.059	871.465	459.449	-294.068	989.497	85.127	-139.725	758.058	67.995	-287.171	935.293	903.499	-249.801	929.375	905.602	-149.823	941.212	901.395	-349.780	776.428	925.427	-226.667	778.324	927.331	-281.417	1039.078	480.366	-113.335	886.361	456.885	-346.430	1026.882	464.042	-221.881	866.201	442.313	-256.388	979.083	88.823	-102.845	765.695	65.120	-324.796	1009.342	94.492	-169.648	777.865	75.538	-259.902	853.047	1342.292	-218.500	948.097	1256.684	-179.634	939.879	1264.201	-287.656	930.009	1272.936	-236.860	966.380	1102.070	-250.522	1092.915	686.977	-185.903	1002.623	622.504	-271.432	1006.202	704.135	-136.104	940.911	663.228	-341.605	1033.360	623.337	-133.310	943.283	576.222	-334.034	985.378	213.156	-42.356	769.973	181.705	-396.089	991.781	216.020	-83.928	778.118	186.947	-353.798	1095.812	63.871	-101.607	884.315	37.971	-297.006
	89	0.86667	888.424	837.719	-254.905	890.516	822.205	-192.711	886.958	818.089	-310.057	1041.451	471.479	-165.966	875.901	458.571	-294.355	1020.469	81.976	-139.795	758.274	68.125	-287.143	945.525	902.389	-250.025	940.149	904.449	-150.016	950.902	900.328	-350.035	786.762	924.090	-226.045	788.354	926.153	-280.768	1050.333	479.397	-112.269	890.519	455.831	-346.787	1036.662	462.087	-219.521	871.129	441.496	-256.920	1009.488	85.038	-103.021	765.747	65.178	-324.795	1040.911	92.515	-169.266	778.037	75.601	-259.969	863.860	1340.933	-218.095	958.777	1254.892	-179.483	950.237	1262.702	-287.485	940.554	1271.407	-236.626	976.321	1100.393	-250.817	1103.241	685.476	-185.440	1010.146	619.709	-272.055	1016.766	702.833	-135.310	948.394	661.574	-341.917	1043.870	621.961	-132.112	949.556	574.598	-334.682	1008.709	209.577	-42.085	771.016	181.824	-396.237	1015.502	212.790	-83.514	778.987	187.041	-354.189	1127.525	65.131	-100.747	884.381	37.925	-297.086
